<svg width="500" height="500" viewBox="0 0 500 500" fill="none" xmlns="http://www.w3.org/2000/svg">
<mask id="mask0_220_8" style="mask-type:alpha" maskUnits="userSpaceOnUse" x="0" y="0" width="500" height="500">
<path d="M500 244.565C500 109.496 388.071 0 250 0C111.929 0 0 109.496 0 244.565V255.435C0 390.504 111.929 500 250 500C388.071 500 500 390.504 500 255.435V244.565Z" fill="#A82828"/>
</mask>
<g mask="url(#mask0_220_8)">
<path d="M439.157 35.2667L261.66 -52.9154C244.198 -69.3179 215.864 -69.3179 198.379 -52.9154L135.394 6.21896L215.294 81.2239C233.867 75.3375 255.162 79.288 269.959 93.181C284.846 107.16 289.016 127.322 282.586 144.816L359.601 217.101C378.237 211.071 399.724 214.969 414.611 228.962C435.404 248.474 435.404 280.107 414.611 299.635C393.802 319.165 360.112 319.165 339.294 299.635C323.656 284.941 319.787 263.369 327.717 245.28L255.886 177.859V355.277C260.951 357.634 265.736 360.772 269.959 364.726C290.752 384.242 290.752 415.87 269.959 435.416C249.166 454.926 215.451 454.926 194.673 435.416C173.88 415.87 173.88 384.242 194.673 364.726C199.812 359.907 205.764 356.261 212.113 353.822V174.763C205.764 172.322 199.827 168.708 194.673 163.855C178.924 149.078 175.135 127.377 183.213 109.22L97.5572 27.174L-12.4497 70.6522L-103.564 230.503C-121.034 246.92 -121.034 273.516 -103.564 289.918L-38.8889 467.391L199.797 574.658C217.262 591.054 245.587 591.054 263.078 574.658L500 510.87L565.006 291.238C582.483 274.833 456.633 51.6664 439.157 35.2667Z" fill="white"/>
</g>
</svg>
