<svg width="90" height="92" viewBox="0 0 90 92" fill="none" xmlns="http://www.w3.org/2000/svg">
<mask id="mask0_107_152" style="mask-type:alpha" maskUnits="userSpaceOnUse" x="0" y="0" width="90" height="92">
<rect width="90" height="92" rx="45" fill="#A82828"/>
</mask>
<g mask="url(#mask0_107_152)">
<path d="M79.0483 6.48907L47.0988 -9.73644C43.9557 -12.7545 38.8556 -12.7545 35.7083 -9.73644L24.371 1.14429L38.753 14.9452C42.096 13.8621 45.9292 14.589 48.5927 17.1453C51.2722 19.7175 52.0228 23.4272 50.8654 26.6462L64.7281 39.9466C68.0827 38.837 71.9504 39.5543 74.6299 42.129C78.3727 45.7193 78.3727 51.5396 74.6299 55.1329C70.8844 58.7264 64.8201 58.7264 61.073 55.1329C58.258 52.4292 57.5616 48.4599 58.989 45.1316L46.0594 32.7261V65.371C46.9712 65.8046 47.8324 66.3821 48.5927 67.1095C52.3354 70.7005 52.3354 76.5201 48.5927 80.1166C44.8499 83.7064 38.7812 83.7064 35.0411 80.1166C31.2984 76.5201 31.2984 70.7005 35.0411 67.1095C35.9662 66.2229 37.0375 65.5521 38.1804 65.1032V32.1563C37.0375 31.7073 35.9688 31.0422 35.0411 30.1494C32.2064 27.4303 31.5243 23.4374 32.9784 20.0965L17.5603 5.00002L-2.24094 13L-18.6415 42.4126C-21.7862 45.4332 -21.7862 50.327 -18.6415 53.3449L-7 86L35.9635 105.737C39.1071 108.754 44.2056 108.754 47.354 105.737L90 94L101.701 53.5877C104.847 50.5693 82.194 9.50662 79.0483 6.48907Z" fill="#111111"/>
</g>
</svg>
