<svg width="72" height="70" viewBox="0 0 72 70" fill="none" xmlns="http://www.w3.org/2000/svg">
<rect x="0.860229" y="0.194691" width="70.6195" height="69.6106" rx="10.0885" fill="#272B34"/>
<path d="M33.9931 35.0018L25.5593 35.0018M52.6274 34.0445C52.8068 34.1319 52.9581 34.268 53.0638 34.4372C53.1695 34.6064 53.2255 34.802 53.2254 35.0015C53.2252 35.2011 53.169 35.3965 53.063 35.5656C52.957 35.7347 52.8056 35.8705 52.626 35.9576L20.5019 51.4279C20.3098 51.5203 20.0944 51.5529 19.8836 51.5214C19.6728 51.4899 19.4763 51.3958 19.3196 51.2512C19.1629 51.1067 19.0533 50.9184 19.005 50.7108C18.9566 50.5032 18.9718 50.2858 19.0485 50.0869L24.7033 35.3827C24.7976 35.1375 24.7976 34.8661 24.7033 34.6209L19.0499 19.9152C18.9739 19.7166 18.9592 19.4997 19.0077 19.2926C19.0562 19.0855 19.1657 18.8977 19.322 18.7535C19.4784 18.6092 19.6744 18.5152 19.8847 18.4835C20.095 18.4518 20.31 18.4839 20.5019 18.5757L52.6274 34.0445Z" stroke="white" stroke-width="3.39973" stroke-linecap="round" stroke-linejoin="round"/>
</svg>
